<svg xmlns="http://www.w3.org/2000/svg" xmlns:xlink="http://www.w3.org/1999/xlink" width="500" zoomAndPan="magnify" viewBox="0 0 375 374.999991" height="500" preserveAspectRatio="xMidYMid meet" version="1.0"><rect x="-37.5" width="450" fill="#ffffff" y="-37.499999" height="449.999989" fill-opacity="1"/><rect x="-37.5" width="450" fill="#ffffff" y="-37.499999" height="449.999989" fill-opacity="1"/><path fill="#ffffff" d="M 316.480469 246.613281 L 307.070312 237.652344 C 306.996094 237.871094 306.996094 238.09375 306.921875 238.316406 C 307.144531 237.578125 307.21875 236.910156 307.144531 236.390625 C 306.699219 230.539062 280.027344 187.71875 259.878906 168.085938 C 239.800781 148.453125 167.417969 146.453125 167.417969 146.453125 L 145.121094 170.085938 L 172.382812 187.71875 C 172.382812 187.71875 212.613281 191.644531 222.835938 200.460938 C 223.058594 200.683594 223.28125 200.828125 223.503906 201.125 C 223.28125 200.902344 223.058594 200.683594 222.835938 200.460938 C 212.6875 191.644531 172.382812 187.71875 172.382812 187.71875 L 145.121094 170.085938 L 105.1875 212.460938 C 105.1875 212.460938 117.78125 241.207031 145.121094 243.875 C 161.789062 245.503906 187.125 242.09375 187.125 242.09375 C 187.125 242.09375 179.71875 296.621094 183.125 306.476562 C 183.71875 308.253906 185.570312 309.734375 188.164062 310.847656 C 187.71875 319.144531 186.535156 342.628906 188.460938 346.851562 C 190.757812 351.964844 225.503906 363.375 245.875 359.074219 C 254.46875 357.296875 254.765625 342.777344 231.949219 327.441406 L 230.539062 310.847656 C 231.503906 310.402344 232.316406 309.882812 232.910156 309.363281 C 239.800781 303.140625 238.835938 249.578125 231.355469 219.351562 C 231.355469 219.425781 231.355469 219.425781 231.429688 219.5 C 243.949219 236.6875 265.65625 264.988281 271.730469 263.949219 C 273.066406 263.726562 274.398438 263.433594 275.660156 263.136719 C 275.066406 263.285156 274.398438 263.433594 273.804688 263.582031 C 278.398438 269.359375 292.402344 286.621094 296.328125 288.324219 C 301.070312 290.398438 331.816406 276.839844 343.148438 261.433594 C 347.890625 254.988281 341.59375 243.132812 316.480469 246.613281 Z M 220.316406 313.441406 Z M 217.5 313.734375 C 217.5 313.734375 217.425781 313.734375 217.5 313.734375 C 217.425781 313.734375 217.5 313.734375 217.5 313.734375 Z M 214.539062 313.957031 Z M 211.5 314.105469 Z M 190.238281 311.660156 Z M 208.390625 314.105469 Z M 192.609375 312.328125 Z M 229.652344 311.292969 Z M 222.984375 312.996094 Z M 225.429688 312.550781 C 225.503906 312.550781 225.503906 312.550781 225.429688 312.550781 C 225.503906 312.550781 225.503906 312.550781 225.429688 312.550781 Z M 227.726562 311.957031 Z M 229.578125 213.128906 C 229.652344 213.277344 229.652344 213.351562 229.726562 213.5 C 229.652344 213.351562 229.652344 213.203125 229.578125 213.128906 Z M 223.722656 201.273438 C 223.871094 201.421875 224.019531 201.644531 224.167969 201.792969 C 224.019531 201.644531 223.871094 201.421875 223.722656 201.273438 Z M 224.390625 202.089844 C 224.539062 202.238281 224.6875 202.460938 224.761719 202.609375 C 224.6875 202.460938 224.539062 202.3125 224.390625 202.089844 Z M 225.058594 203.050781 C 225.207031 203.199219 225.28125 203.421875 225.429688 203.570312 C 225.28125 203.347656 225.207031 203.199219 225.058594 203.050781 Z M 225.726562 204.015625 C 225.800781 204.164062 225.945312 204.386719 226.019531 204.609375 C 225.871094 204.386719 225.800781 204.164062 225.726562 204.015625 Z M 226.316406 205.054688 C 226.390625 205.273438 226.539062 205.421875 226.613281 205.644531 C 226.464844 205.421875 226.390625 205.273438 226.316406 205.054688 Z M 226.910156 206.238281 C 226.984375 206.460938 227.132812 206.609375 227.207031 206.832031 C 227.058594 206.609375 226.984375 206.386719 226.910156 206.238281 Z M 227.429688 207.421875 C 227.503906 207.644531 227.578125 207.792969 227.726562 208.015625 C 227.652344 207.867188 227.578125 207.644531 227.429688 207.421875 Z M 228.019531 208.757812 C 228.09375 208.980469 228.167969 209.128906 228.242188 209.351562 C 228.167969 209.128906 228.09375 208.980469 228.019531 208.757812 Z M 228.539062 210.164062 C 228.613281 210.386719 228.6875 210.535156 228.761719 210.757812 C 228.6875 210.535156 228.613281 210.3125 228.539062 210.164062 Z M 229.058594 211.574219 C 229.132812 211.71875 229.207031 211.941406 229.207031 212.089844 C 229.207031 211.941406 229.132812 211.792969 229.058594 211.574219 Z M 291.4375 256.097656 C 291.808594 255.800781 292.253906 255.578125 292.625 255.28125 C 292.253906 255.578125 291.808594 255.800781 291.4375 256.097656 Z M 276.324219 263.0625 C 276.695312 262.988281 277.140625 262.839844 277.511719 262.691406 C 277.066406 262.839844 276.695312 262.914062 276.324219 263.0625 Z M 278.25 262.46875 C 278.621094 262.320312 278.992188 262.246094 279.289062 262.097656 C 278.992188 262.246094 278.621094 262.394531 278.25 262.46875 Z M 280.101562 261.875 C 280.472656 261.726562 280.769531 261.652344 281.140625 261.507812 C 280.769531 261.652344 280.398438 261.726562 280.101562 261.875 Z M 281.808594 261.210938 C 282.105469 261.0625 282.472656 260.914062 282.769531 260.839844 C 282.472656 260.914062 282.175781 261.0625 281.808594 261.210938 Z M 283.511719 260.46875 C 283.808594 260.320312 284.179688 260.171875 284.472656 260.023438 C 284.179688 260.171875 283.882812 260.320312 283.511719 260.46875 Z M 285.214844 259.726562 C 285.511719 259.578125 285.882812 259.429688 286.179688 259.285156 C 285.808594 259.355469 285.511719 259.578125 285.214844 259.726562 Z M 286.769531 258.914062 C 287.066406 258.765625 287.4375 258.542969 287.734375 258.394531 C 287.4375 258.542969 287.140625 258.691406 286.769531 258.914062 Z M 288.328125 258.023438 C 288.695312 257.800781 289.066406 257.578125 289.363281 257.355469 C 289.066406 257.652344 288.695312 257.800781 288.328125 258.023438 Z M 289.808594 257.136719 C 290.328125 256.839844 290.773438 256.542969 291.214844 256.246094 C 290.773438 256.542969 290.328125 256.839844 289.808594 257.136719 Z M 295.734375 252.910156 C 295.957031 252.691406 296.253906 252.46875 296.476562 252.320312 C 296.179688 252.46875 295.957031 252.691406 295.734375 252.910156 Z M 293.066406 254.988281 C 293.363281 254.765625 293.660156 254.542969 293.957031 254.320312 C 293.660156 254.542969 293.363281 254.765625 293.066406 254.988281 Z M 294.476562 253.949219 C 294.773438 253.726562 294.996094 253.503906 295.289062 253.355469 C 294.996094 253.503906 294.699219 253.726562 294.476562 253.949219 Z M 296.921875 251.875 C 297.144531 251.652344 297.363281 251.429688 297.585938 251.28125 C 297.363281 251.429688 297.144531 251.652344 296.921875 251.875 Z M 298.03125 250.835938 C 298.253906 250.617188 298.476562 250.394531 298.699219 250.171875 C 298.476562 250.394531 298.253906 250.617188 298.03125 250.835938 Z M 299.144531 249.800781 C 299.367188 249.578125 299.585938 249.355469 299.808594 249.132812 C 299.585938 249.355469 299.367188 249.578125 299.144531 249.800781 Z M 306.847656 238.539062 C 306.773438 238.6875 306.773438 238.910156 306.699219 239.058594 C 306.773438 238.835938 306.847656 238.6875 306.847656 238.539062 Z M 306.625 239.355469 C 306.550781 239.503906 306.476562 239.726562 306.402344 239.871094 C 306.476562 239.652344 306.550781 239.503906 306.625 239.355469 Z M 306.253906 240.167969 C 306.179688 240.316406 306.105469 240.539062 306.03125 240.6875 C 306.105469 240.464844 306.179688 240.316406 306.253906 240.167969 Z M 305.886719 240.984375 C 305.8125 241.132812 305.738281 241.355469 305.589844 241.503906 C 305.664062 241.355469 305.738281 241.207031 305.886719 240.984375 Z M 305.367188 241.875 C 305.292969 242.019531 305.144531 242.242188 305.070312 242.464844 C 305.144531 242.242188 305.292969 242.09375 305.367188 241.875 Z M 304.847656 242.835938 C 304.699219 243.058594 304.625 243.207031 304.476562 243.429688 C 304.550781 243.207031 304.699219 242.984375 304.847656 242.835938 Z M 304.179688 243.726562 C 304.03125 243.949219 303.882812 244.171875 303.738281 244.390625 C 303.882812 244.171875 304.105469 243.949219 304.179688 243.726562 Z M 303.515625 244.6875 C 303.292969 244.984375 303.144531 245.207031 302.921875 245.503906 C 303.144531 245.207031 303.367188 244.984375 303.515625 244.6875 Z M 302.773438 245.726562 C 302.476562 246.097656 302.253906 246.390625 301.957031 246.761719 C 302.253906 246.390625 302.550781 246.023438 302.773438 245.726562 Z M 301.882812 246.835938 C 301.589844 247.132812 301.367188 247.429688 301.070312 247.800781 C 301.367188 247.429688 301.664062 247.132812 301.882812 246.835938 Z M 300.773438 248.023438 C 300.550781 248.246094 300.328125 248.46875 300.105469 248.761719 C 300.328125 248.539062 300.550781 248.320312 300.773438 248.023438 Z M 134.601562 74.664062 Z M 158.382812 126.671875 C 169.566406 132.597656 191.941406 142.746094 209.5 139.488281 C 231.503906 135.414062 245.355469 77.109375 247.875 65.550781 C 248.171875 64.289062 247.875 62.882812 247.0625 61.847656 C 246.914062 61.625 246.765625 61.476562 246.617188 61.253906 C 248.394531 58.511719 252.46875 51.84375 256.914062 42.511719 C 262.914062 30.0625 259.433594 17.320312 249.210938 14.433594 C 240.914062 12.0625 236.835938 17.246094 233.800781 20.804688 C 230.761719 24.359375 226.09375 33.621094 226.09375 33.621094 C 226.09375 33.621094 225.207031 25.320312 221.5 25.542969 C 218.539062 25.691406 217.5 28.433594 218.390625 39.027344 C 218.761719 43.25 218.761719 46.882812 218.6875 49.769531 C 217.058594 49.917969 215.574219 50.882812 214.910156 52.4375 L 195.425781 96.074219 C 162.605469 70.589844 134.527344 74.589844 134.527344 74.589844 Z M 220.316406 49.917969 C 220.390625 49.917969 220.464844 49.917969 220.613281 49.917969 C 220.464844 49.917969 220.390625 49.917969 220.316406 49.917969 Z M 221.132812 49.917969 C 221.207031 49.917969 221.207031 49.917969 221.28125 49.917969 C 221.207031 49.992188 221.132812 49.992188 221.132812 49.917969 Z M 221.871094 49.992188 C 221.871094 49.992188 221.945312 50.066406 221.871094 49.992188 C 221.945312 50.066406 221.871094 49.992188 221.871094 49.992188 Z M 222.6875 50.140625 Z M 219.945312 49.84375 C 219.722656 49.84375 219.574219 49.84375 219.351562 49.84375 C 219.5 49.84375 219.722656 49.84375 219.945312 49.84375 Z M 129.117188 270.46875 C 120.671875 262.023438 109.632812 258.097656 109.632812 258.097656 L 109.484375 258.171875 C 109.410156 258.246094 109.335938 258.394531 109.1875 258.46875 L 86 277.953125 C 85.851562 278.101562 85.703125 278.175781 85.480469 278.324219 C 85.628906 278.25 85.851562 278.101562 86 277.953125 L 109.261719 258.46875 C 110.746094 257.207031 111.1875 255.058594 110.226562 253.429688 C 105.039062 244.097656 88.890625 215.054688 81.703125 206.757812 C 81.703125 206.757812 82.742188 192.457031 83.554688 179.714844 L 105.1875 212.535156 L 167.417969 146.527344 L 134.527344 74.738281 L 108.226562 79.996094 L 103.039062 79.183594 C 102.003906 79.035156 101.335938 77.996094 101.632812 76.960938 C 102.519531 73.921875 102.890625 70.738281 102.59375 67.328125 C 101.558594 54.214844 90.890625 43.621094 77.703125 42.730469 C 62.070312 41.695312 49.105469 54.066406 49.105469 69.476562 C 49.105469 82.738281 58.738281 93.703125 71.332031 95.851562 C 72.589844 96.074219 73.183594 97.480469 72.441406 98.59375 L 69.183594 103.261719 L 48.214844 125.929688 C 48.214844 125.929688 27.695312 156.304688 35.917969 199.421875 C 42.957031 236.464844 71.554688 268.394531 80.519531 277.65625 C 81.777344 278.914062 83.628906 279.210938 85.183594 278.472656 C 86.742188 280.175781 92.371094 286.84375 96.890625 299.363281 C 102.152344 314.03125 112.078125 322.921875 122.523438 316.996094 C 130.96875 312.179688 130.082031 304.847656 129.636719 299.585938 C 129.191406 294.324219 126.007812 282.84375 126.007812 282.84375 C 126.007812 282.84375 131.859375 286.472656 134.675781 284.695312 C 137.414062 282.84375 137.636719 278.988281 129.117188 270.46875 Z M 108.152344 80.292969 C 108.078125 80.441406 108.078125 80.589844 108.003906 80.738281 C 108.078125 80.589844 108.152344 80.441406 108.152344 80.292969 Z M 107.113281 82.8125 C 106.964844 83.109375 106.742188 83.40625 106.597656 83.777344 C 106.742188 83.40625 106.890625 83.109375 107.113281 82.8125 Z M 102.890625 88.589844 C 103.707031 87.628906 104.445312 86.8125 105.039062 85.996094 C 105.335938 85.628906 105.632812 85.183594 105.855469 84.8125 C 105.632812 85.183594 105.335938 85.554688 105.039062 85.996094 C 104.445312 86.738281 103.78125 87.628906 102.890625 88.589844 C 102.445312 89.035156 102.003906 89.554688 101.558594 90.074219 C 102.078125 89.554688 102.519531 89.035156 102.890625 88.589844 Z M 95.1875 95.777344 C 89.1875 100.519531 73.851562 102.59375 70.144531 103.039062 C 73.851562 102.59375 89.1875 100.519531 95.1875 95.777344 Z M 95.1875 95.777344 " fill-opacity="1" fill-rule="nonzero"/><path fill="#d35425" d="M 37.84375 150.75 L 58.589844 154.082031 L 55.105469 175.714844 L 34.140625 172.382812 C 34.734375 164.304688 36.140625 157.046875 37.84375 150.75 Z M 126.300781 97.554688 C 123.265625 97.554688 120.746094 100.074219 120.746094 103.113281 C 120.746094 106.148438 123.265625 108.667969 126.300781 108.667969 C 129.339844 108.667969 131.859375 106.148438 131.859375 103.113281 C 131.859375 100.074219 129.339844 97.554688 126.300781 97.554688 Z M 134.75 120.667969 L 131.117188 123.78125 L 148.230469 149.042969 L 151.714844 145.859375 Z M 134.75 120.667969 " fill-opacity="1" fill-rule="nonzero"/><path fill="#030303" d="M 183.050781 87.703125 C 180.679688 91.703125 176.382812 94.445312 171.347656 94.445312 C 163.863281 94.445312 157.863281 88.367188 157.863281 80.960938 C 157.863281 79.625 158.085938 78.367188 158.382812 77.183594 C 165.640625 79.109375 174.011719 82.367188 183.050781 87.703125 Z M 86.667969 130.523438 L 90.816406 135.855469 L 110.078125 121.113281 L 105.929688 115.78125 Z M 122.449219 153.933594 L 130.378906 165.566406 L 145.710938 151.414062 L 138.007812 140.007812 Z M 122.449219 153.933594 " fill-opacity="1" fill-rule="nonzero"/><path fill="#f7be32" d="M 132.746094 138.671875 L 122.671875 147.5625 C 121.117188 148.96875 118.96875 148.820312 117.929688 147.339844 L 115.042969 143.117188 C 114.003906 141.5625 114.449219 139.265625 116.003906 137.859375 L 126.152344 129.042969 C 127.710938 127.707031 129.710938 127.855469 130.746094 129.410156 L 133.5625 133.488281 C 134.601562 135.042969 134.230469 137.339844 132.746094 138.671875 Z M 102.742188 69.105469 C 101.855469 70.589844 101.1875 71.699219 101.1875 71.699219 C 97.113281 78.21875 90.890625 83.257812 83.703125 85.996094 C 83.703125 85.996094 73.703125 89.925781 71.628906 88.738281 L 69.921875 87.777344 C 64.886719 84.8125 61.105469 80.292969 59.179688 74.8125 L 58.589844 73.03125 C 57.773438 70.738281 58.589844 67.996094 60.664062 66.292969 L 86.519531 44.878906 C 86.59375 44.804688 86.667969 44.804688 86.667969 44.734375 C 96.074219 48.882812 102.667969 58.214844 102.742188 69.105469 Z M 82.960938 58.734375 C 83.035156 58.363281 82.742188 57.917969 82.371094 57.84375 C 82 57.773438 81.554688 58.066406 81.480469 58.4375 L 77.851562 79.847656 C 77.777344 80.21875 78.074219 80.664062 78.441406 80.738281 C 78.515625 80.738281 78.515625 80.738281 78.589844 80.738281 C 78.960938 80.738281 79.257812 80.515625 79.332031 80.144531 Z M 86.371094 70.664062 C 86.445312 70.292969 86.148438 69.847656 85.777344 69.773438 C 85.40625 69.699219 84.960938 69.996094 84.890625 70.367188 L 84.074219 74.960938 C 84 75.328125 84.296875 75.773438 84.667969 75.847656 C 84.742188 75.847656 84.742188 75.847656 84.816406 75.847656 C 85.183594 75.847656 85.480469 75.625 85.554688 75.253906 Z M 89.261719 53.84375 C 89.332031 53.472656 89.039062 53.03125 88.667969 52.957031 C 88.296875 52.882812 87.851562 53.179688 87.777344 53.546875 L 85.554688 66.511719 C 85.480469 66.882812 85.777344 67.328125 86.148438 67.402344 C 86.222656 67.402344 86.222656 67.402344 86.296875 67.402344 C 86.667969 67.402344 86.964844 67.179688 87.039062 66.808594 Z M 89.261719 53.84375 " fill-opacity="1" fill-rule="nonzero"/><path fill="#000000" d="M 110.375 121.632812 C 110.523438 121.558594 110.597656 121.410156 110.597656 121.261719 C 110.597656 121.113281 110.597656 120.964844 110.449219 120.816406 L 106.300781 115.484375 C 106.078125 115.261719 105.78125 115.1875 105.558594 115.410156 L 86.296875 130.152344 C 86.148438 130.226562 86.074219 130.375 86.074219 130.523438 C 86.074219 130.671875 86.074219 130.820312 86.222656 130.96875 L 90.371094 136.300781 C 90.445312 136.449219 90.667969 136.523438 90.816406 136.523438 C 90.964844 136.523438 91.039062 136.449219 91.1875 136.375 Z M 87.40625 130.671875 L 105.78125 116.59375 L 109.261719 121.039062 L 90.890625 135.117188 Z M 126.300781 109.261719 C 129.710938 109.261719 132.453125 106.519531 132.453125 103.113281 C 132.453125 99.703125 129.710938 96.960938 126.300781 96.960938 C 122.894531 96.960938 120.152344 99.703125 120.152344 103.113281 C 120.152344 106.519531 122.894531 109.261719 126.300781 109.261719 Z M 126.300781 98.148438 C 129.042969 98.148438 131.339844 100.371094 131.339844 103.1875 C 131.339844 106 129.117188 108.222656 126.300781 108.222656 C 123.488281 108.222656 121.265625 106 121.265625 103.1875 C 121.265625 100.371094 123.488281 98.148438 126.300781 98.148438 Z M 108.890625 132.820312 C 106.003906 135.265625 105.261719 139.488281 107.113281 142.304688 L 125.488281 169.121094 C 126.300781 170.382812 127.636719 171.121094 129.117188 171.269531 C 129.339844 171.269531 129.488281 171.269531 129.710938 171.269531 C 131.265625 171.269531 132.820312 170.601562 134.15625 169.417969 L 154.304688 150.601562 C 156.898438 148.230469 157.492188 144.15625 155.714844 141.488281 L 138.304688 115.707031 C 137.488281 114.445312 136.15625 113.632812 134.75 113.484375 C 133.117188 113.261719 131.414062 113.78125 130.007812 114.964844 Z M 133.933594 114.59375 C 134.15625 114.59375 134.304688 114.59375 134.527344 114.667969 C 135.710938 114.816406 136.675781 115.484375 137.339844 116.445312 L 154.75 142.230469 C 156.234375 144.453125 155.714844 147.859375 153.492188 149.933594 L 133.339844 168.75 C 132.15625 169.863281 130.597656 170.457031 129.191406 170.308594 C 128.082031 170.160156 127.042969 169.566406 126.375 168.601562 L 108.003906 141.785156 C 106.449219 139.488281 107.113281 135.855469 109.558594 133.78125 L 130.597656 115.929688 C 131.636719 115.039062 132.746094 114.59375 133.933594 114.59375 Z M 138.453125 139.710938 C 138.378906 139.5625 138.230469 139.488281 138.082031 139.488281 C 137.933594 139.488281 137.785156 139.488281 137.636719 139.636719 L 122.078125 153.5625 C 121.855469 153.785156 121.855469 154.082031 122.003906 154.304688 L 129.933594 165.9375 C 130.007812 166.085938 130.15625 166.15625 130.304688 166.15625 C 130.304688 166.15625 130.378906 166.15625 130.378906 166.15625 C 130.523438 166.15625 130.671875 166.085938 130.746094 166.011719 L 146.082031 151.859375 C 146.304688 151.636719 146.304688 151.339844 146.15625 151.117188 Z M 137.859375 140.894531 L 141.121094 145.636719 L 136.898438 149.488281 L 133.636719 144.671875 Z M 131.785156 154.15625 L 128.449219 149.339844 L 132.820312 145.488281 L 136.082031 150.304688 Z M 136.675781 151.191406 L 139.933594 156.007812 L 135.636719 159.933594 L 132.378906 155.121094 Z M 127.636719 150.082031 L 130.96875 154.972656 L 126.597656 158.972656 L 123.265625 154.082031 Z M 130.523438 164.75 L 127.191406 159.859375 L 131.5625 155.859375 L 134.894531 160.675781 Z M 140.824219 155.195312 L 137.5625 150.378906 L 141.785156 146.527344 L 145.046875 151.265625 Z M 147.859375 149.339844 C 147.933594 149.488281 148.082031 149.5625 148.230469 149.5625 C 148.230469 149.5625 148.304688 149.5625 148.304688 149.5625 C 148.453125 149.5625 148.601562 149.488281 148.675781 149.414062 L 152.15625 146.230469 C 152.378906 146.007812 152.378906 145.710938 152.230469 145.488281 L 135.191406 120.300781 C 135.117188 120.152344 134.96875 120.078125 134.820312 120.078125 C 134.675781 120.078125 134.527344 120.078125 134.378906 120.226562 L 130.746094 123.335938 C 130.523438 123.484375 130.523438 123.855469 130.671875 124.078125 Z M 134.675781 121.484375 L 151.121094 145.710938 L 148.453125 148.15625 L 131.933594 123.855469 Z M 117.484375 147.636719 C 118.003906 148.453125 118.894531 148.96875 119.855469 149.042969 C 120.003906 149.042969 120.152344 149.042969 120.300781 149.042969 C 121.265625 149.042969 122.226562 148.675781 123.042969 147.933594 L 133.117188 139.042969 C 134.820312 137.5625 135.265625 134.894531 134.082031 133.191406 L 131.265625 129.117188 C 130.746094 128.300781 129.859375 127.78125 128.96875 127.707031 C 127.933594 127.558594 126.746094 127.929688 125.859375 128.671875 L 115.707031 137.488281 C 113.929688 139.042969 113.484375 141.710938 114.671875 143.488281 Z M 116.449219 138.375 L 126.597656 129.558594 C 127.191406 129.042969 127.859375 128.820312 128.523438 128.820312 C 128.597656 128.820312 128.746094 128.820312 128.820312 128.820312 C 129.488281 128.894531 130.007812 129.265625 130.378906 129.78125 L 133.191406 133.855469 C 134.082031 135.117188 133.710938 137.117188 132.378906 138.226562 L 122.300781 147.117188 C 121.636719 147.710938 120.746094 148.007812 120.003906 147.933594 C 119.339844 147.859375 118.820312 147.488281 118.449219 146.96875 L 115.558594 142.746094 C 114.671875 141.5625 115.042969 139.5625 116.449219 138.375 Z M 343.964844 252.765625 C 340.335938 246.6875 330.183594 244.171875 316.703125 246.023438 L 307.664062 237.429688 C 307.738281 237.058594 307.738281 236.6875 307.738281 236.316406 C 307.21875 229.796875 280.027344 186.902344 260.324219 167.640625 C 240.765625 148.527344 173.792969 146.007812 167.789062 145.859375 L 159.566406 127.855469 C 169.863281 133.191406 186.976562 140.671875 202.3125 140.671875 C 204.238281 140.671875 206.09375 140.523438 207.871094 140.300781 C 207.945312 140.300781 208.019531 140.300781 208.09375 140.226562 C 208.609375 140.152344 209.128906 140.082031 209.574219 140.007812 C 209.945312 139.933594 210.316406 139.859375 210.683594 139.785156 C 210.757812 139.785156 210.832031 139.710938 210.90625 139.710938 C 211.203125 139.636719 211.5 139.5625 211.722656 139.488281 C 211.871094 139.414062 211.945312 139.414062 212.09375 139.339844 C 212.316406 139.265625 212.539062 139.191406 212.761719 139.042969 C 212.90625 138.96875 213.054688 138.894531 213.277344 138.820312 C 213.425781 138.746094 213.648438 138.671875 213.796875 138.523438 C 214.019531 138.449219 214.167969 138.300781 214.390625 138.226562 C 214.539062 138.152344 214.6875 138.078125 214.835938 138.003906 C 215.054688 137.859375 215.277344 137.710938 215.5 137.636719 C 215.574219 137.5625 215.722656 137.488281 215.796875 137.414062 C 216.09375 137.265625 216.316406 137.042969 216.613281 136.894531 C 216.613281 136.894531 216.6875 136.820312 216.6875 136.820312 C 220.167969 134.300781 223.578125 130.375 226.910156 125.113281 C 226.910156 125.039062 226.984375 125.039062 226.984375 124.96875 C 239.132812 105.628906 246.617188 73.921875 248.46875 65.699219 C 248.765625 64.21875 248.46875 62.660156 247.578125 61.550781 C 247.503906 61.476562 247.433594 61.402344 247.359375 61.328125 C 249.433594 58.140625 253.285156 51.695312 257.507812 42.878906 C 260.988281 35.621094 261.507812 28.0625 258.839844 22.210938 C 256.988281 18.0625 253.730469 15.246094 249.433594 13.988281 C 240.988281 11.617188 236.761719 16.582031 233.652344 20.210938 L 233.429688 20.507812 C 231.132812 23.246094 227.875 29.175781 226.390625 31.988281 C 225.871094 29.472656 224.539062 24.953125 221.5 25.101562 C 220.464844 25.175781 219.648438 25.542969 218.984375 26.210938 C 217.5 27.914062 217.203125 31.546875 217.871094 39.25 C 218.167969 42.730469 218.242188 46.140625 218.167969 49.472656 C 216.539062 49.769531 215.128906 50.808594 214.464844 52.363281 L 195.277344 95.332031 C 191.273438 92.222656 187.273438 89.628906 183.421875 87.332031 C 183.421875 87.332031 183.421875 87.332031 183.347656 87.257812 C 175.273438 82.515625 166.976562 78.960938 158.605469 76.664062 C 158.53125 76.664062 158.457031 76.664062 158.382812 76.664062 C 144.15625 72.886719 134.675781 74.070312 134.527344 74.144531 L 108.375 79.332031 L 103.1875 78.515625 C 102.816406 78.441406 102.59375 78.292969 102.371094 77.996094 C 102.152344 77.699219 102.152344 77.328125 102.226562 77.035156 C 102.964844 74.515625 103.335938 71.847656 103.261719 69.179688 C 103.261719 69.179688 103.261719 69.179688 103.261719 69.105469 C 103.261719 68.441406 103.261719 67.847656 103.1875 67.179688 C 102.890625 63.253906 101.707031 59.476562 99.855469 56.140625 C 99.78125 55.992188 99.707031 55.84375 99.632812 55.695312 C 99.410156 55.253906 99.113281 54.882812 98.890625 54.4375 C 98.742188 54.214844 98.59375 53.992188 98.445312 53.769531 C 98.296875 53.621094 98.222656 53.402344 98.074219 53.253906 C 95.851562 50.214844 93.039062 47.621094 89.703125 45.695312 C 89.554688 45.621094 89.40625 45.546875 89.261719 45.472656 C 88.964844 45.324219 88.667969 45.175781 88.371094 45.027344 C 88 44.804688 87.554688 44.660156 87.109375 44.4375 C 87.039062 44.363281 86.890625 44.363281 86.816406 44.289062 C 86.816406 44.289062 86.742188 44.289062 86.742188 44.289062 C 83.925781 43.101562 80.960938 42.289062 77.777344 42.140625 C 70.144531 41.621094 62.8125 44.214844 57.253906 49.472656 C 51.773438 54.660156 48.585938 61.921875 48.585938 69.402344 C 48.585938 82.738281 58.144531 94.074219 71.257812 96.296875 C 71.703125 96.371094 71.996094 96.59375 72.144531 97.035156 C 72.292969 97.40625 72.292969 97.851562 71.996094 98.148438 L 68.738281 102.816406 L 47.699219 125.558594 C 47.699219 125.558594 47.699219 125.558594 47.699219 125.632812 C 47.476562 125.929688 27.101562 156.675781 35.324219 199.570312 C 35.695312 201.644531 36.214844 203.644531 36.734375 205.71875 C 36.957031 206.460938 37.105469 207.203125 37.324219 207.867188 C 37.398438 208.164062 37.472656 208.386719 37.546875 208.683594 C 37.769531 209.351562 37.917969 210.015625 38.140625 210.683594 C 38.214844 210.980469 38.363281 211.277344 38.4375 211.648438 C 38.734375 212.609375 39.105469 213.574219 39.402344 214.535156 C 39.621094 215.128906 39.769531 215.722656 39.992188 216.238281 C 40.140625 216.683594 40.289062 217.054688 40.4375 217.5 C 40.660156 218.167969 40.957031 218.757812 41.179688 219.425781 C 41.328125 219.796875 41.476562 220.09375 41.550781 220.460938 C 41.84375 221.203125 42.140625 222.019531 42.511719 222.757812 C 42.585938 222.980469 42.660156 223.203125 42.808594 223.351562 C 46.363281 231.648438 50.957031 240.09375 56.589844 248.613281 C 56.589844 248.613281 56.589844 248.613281 56.664062 248.6875 C 65.996094 262.839844 75.628906 273.433594 80.074219 278.027344 C 80.960938 278.988281 82.148438 279.433594 83.40625 279.433594 C 83.925781 279.433594 84.519531 279.359375 85.035156 279.136719 C 86.890625 281.210938 92.148438 287.730469 96.371094 299.511719 C 99.929688 309.363281 105.410156 316.253906 111.484375 318.550781 C 112.96875 319.070312 114.449219 319.367188 115.929688 319.367188 C 118.226562 319.367188 120.523438 318.699219 122.746094 317.441406 C 131.265625 312.625 130.597656 305.289062 130.15625 299.957031 L 130.082031 299.511719 C 129.710938 295.289062 127.636719 287.140625 126.746094 283.953125 C 128.671875 284.992188 132.527344 286.621094 134.820312 285.140625 C 136.007812 284.398438 136.675781 283.359375 136.824219 282.101562 C 137.117188 279.285156 134.75 275.359375 129.488281 270.101562 C 122.226562 262.839844 112.96875 258.839844 110.523438 257.875 C 111.410156 256.46875 111.558594 254.691406 110.746094 253.132812 C 105.929688 244.316406 89.628906 215.128906 82.296875 206.535156 C 82.445312 204.757812 83.332031 192.679688 84.074219 181.34375 L 104.742188 212.757812 C 105.1875 213.722656 118.078125 241.800781 145.121094 244.464844 C 160.085938 245.949219 182.238281 243.28125 186.535156 242.761719 C 185.644531 249.503906 179.421875 297.289062 182.679688 306.625 C 183.273438 308.402344 184.976562 309.957031 187.644531 311.144531 C 187.125 320.847656 186.089844 342.851562 187.941406 347.074219 C 189.347656 350.1875 200.238281 354.484375 210.242188 357 C 219.351562 359.371094 228.167969 360.558594 235.726562 360.558594 C 239.503906 360.558594 242.988281 360.261719 246.023438 359.59375 C 249.0625 358.929688 251.136719 356.855469 251.730469 353.890625 C 252.914062 347.964844 248.46875 337.886719 232.613281 327.144531 L 231.28125 311.21875 C 232.171875 310.773438 232.910156 310.328125 233.429688 309.808594 C 238.097656 305.585938 238.394531 284.027344 238.246094 274.988281 C 238.023438 257.136719 236.097656 237.207031 232.6875 222.167969 C 258.25 256.914062 267.953125 264.691406 271.507812 264.691406 C 271.65625 264.691406 271.730469 264.691406 271.878906 264.691406 C 272.472656 264.617188 273.066406 264.46875 273.65625 264.320312 C 279.289062 271.359375 292.253906 287.214844 296.179688 288.992188 C 296.550781 289.140625 297.070312 289.214844 297.734375 289.214844 C 301.808594 289.214844 310.332031 285.878906 317.589844 282.027344 C 329.222656 275.953125 338.703125 268.617188 343.667969 261.800781 C 345.59375 259.136719 345.667969 255.726562 343.964844 252.765625 Z M 274.917969 186.085938 L 230.316406 213.5 C 228.464844 207.644531 226.390625 203.421875 224.167969 200.976562 C 224.09375 200.902344 224.09375 200.902344 224.019531 200.832031 C 223.722656 200.535156 223.503906 200.3125 223.207031 200.089844 C 221.207031 198.386719 218.167969 196.902344 214.539062 195.496094 L 226.464844 154.230469 C 239.800781 157.34375 252.691406 161.859375 259.433594 168.527344 C 264.472656 173.269531 269.730469 179.417969 274.917969 186.085938 Z M 211.5 138.449219 C 211.5 138.449219 211.425781 138.449219 211.425781 138.449219 C 211.128906 138.523438 210.832031 138.671875 210.539062 138.746094 C 210.464844 138.746094 210.464844 138.746094 210.390625 138.820312 C 210.09375 138.894531 209.722656 138.96875 209.425781 139.042969 C 208.757812 139.191406 208.019531 139.265625 207.351562 139.339844 C 207.203125 139.339844 207.054688 139.339844 206.90625 139.414062 C 201.574219 140.007812 195.425781 139.5625 188.609375 137.933594 C 190.832031 127.78125 200.386719 120.449219 211.425781 120.449219 C 216.613281 120.449219 221.648438 122.078125 225.726562 125.039062 C 221.058594 132.226562 216.316406 136.671875 211.5 138.449219 Z M 219.351562 49.25 C 219.351562 45.992188 219.28125 42.511719 218.984375 39.027344 C 218.390625 31.839844 218.613281 28.210938 219.871094 26.878906 C 220.316406 26.433594 220.835938 26.210938 221.574219 26.136719 C 224.167969 25.988281 225.355469 31.621094 225.578125 33.769531 C 225.578125 33.988281 225.800781 34.210938 226.019531 34.285156 C 226.242188 34.359375 226.539062 34.210938 226.613281 33.988281 C 226.6875 33.917969 231.355469 24.730469 234.246094 21.246094 L 234.539062 20.949219 C 237.578125 17.320312 241.355469 12.875 249.136719 15.097656 C 253.0625 16.210938 256.027344 18.800781 257.804688 22.65625 C 260.25 28.136719 259.804688 35.546875 256.46875 42.363281 C 252.246094 51.105469 248.394531 57.550781 246.542969 60.4375 C 240.171875 53.253906 230.539062 50.660156 223.945312 49.769531 C 223.722656 49.769531 223.429688 49.695312 223.207031 49.695312 C 222.984375 49.695312 222.761719 49.621094 222.464844 49.621094 C 222.464844 49.621094 222.464844 49.621094 222.390625 49.621094 C 222.167969 49.621094 221.945312 49.546875 221.722656 49.546875 C 221.722656 49.546875 221.722656 49.546875 221.648438 49.546875 C 221.429688 49.546875 221.207031 49.472656 221.058594 49.472656 C 221.058594 49.472656 220.984375 49.472656 220.984375 49.472656 C 220.761719 49.472656 220.613281 49.472656 220.464844 49.398438 C 220.390625 49.398438 220.390625 49.398438 220.316406 49.398438 C 220.167969 49.398438 220.019531 49.398438 219.871094 49.398438 C 219.871094 49.398438 219.796875 49.398438 219.796875 49.398438 C 219.722656 49.324219 219.5 49.25 219.351562 49.25 Z M 158.824219 77.921875 C 165.714844 79.847656 173.71875 82.886719 182.3125 87.925781 C 179.941406 91.628906 175.792969 93.925781 171.421875 93.925781 C 164.308594 93.925781 158.457031 88.144531 158.457031 80.960938 C 158.457031 79.921875 158.605469 78.886719 158.824219 77.921875 Z M 157.789062 77.625 C 157.492188 78.738281 157.34375 79.847656 157.34375 80.960938 C 157.34375 84.738281 158.824219 88.21875 161.492188 90.886719 C 164.160156 93.554688 167.640625 95.035156 171.421875 95.035156 C 176.234375 95.035156 180.679688 92.515625 183.273438 88.515625 C 187.125 90.8125 191.128906 93.480469 195.128906 96.59375 C 195.277344 96.667969 195.425781 96.742188 195.570312 96.667969 C 195.71875 96.59375 195.867188 96.519531 195.941406 96.371094 L 215.425781 52.734375 C 216.019531 51.398438 217.277344 50.511719 218.761719 50.363281 C 218.910156 50.363281 219.132812 50.363281 219.28125 50.363281 C 219.425781 50.363281 219.648438 50.363281 219.796875 50.363281 C 224.835938 50.660156 235.355469 52.140625 242.988281 58.4375 C 243.28125 58.660156 243.503906 58.882812 243.800781 59.179688 C 244.097656 59.402344 244.320312 59.699219 244.617188 59.921875 C 244.914062 60.214844 245.136719 60.4375 245.355469 60.734375 C 245.578125 61.03125 245.875 61.328125 246.097656 61.550781 C 246.246094 61.699219 246.394531 61.921875 246.542969 62.070312 C 247.210938 62.957031 247.503906 64.144531 247.210938 65.328125 C 245.800781 71.847656 241.726562 88.8125 235.355469 105.039062 C 232.390625 112.59375 229.28125 118.890625 226.167969 123.929688 C 221.945312 120.816406 216.6875 119.113281 211.277344 119.113281 C 199.648438 119.113281 189.71875 126.820312 187.347656 137.488281 C 176.234375 134.746094 165.566406 129.78125 158.605469 126.078125 L 135.191406 74.886719 C 137.859375 74.886719 146.15625 74.589844 157.789062 77.625 Z M 86.890625 45.472656 C 87.257812 45.621094 87.703125 45.84375 88.074219 46.066406 C 88.296875 46.214844 88.59375 46.363281 88.816406 46.511719 C 88.964844 46.585938 89.113281 46.660156 89.1875 46.734375 C 89.703125 47.027344 90.222656 47.398438 90.742188 47.695312 C 90.742188 47.695312 90.816406 47.769531 90.816406 47.769531 C 93.261719 49.472656 95.335938 51.546875 97.113281 53.917969 C 97.261719 54.140625 97.410156 54.289062 97.558594 54.511719 C 97.707031 54.734375 97.855469 54.882812 97.929688 55.105469 C 98.222656 55.550781 98.445312 55.917969 98.667969 56.363281 C 98.742188 56.4375 98.816406 56.585938 98.816406 56.660156 C 100.816406 60.363281 102.003906 64.511719 102.078125 68.882812 C 101.261719 70.292969 100.59375 71.328125 100.59375 71.328125 C 96.59375 77.699219 90.445312 82.738281 83.332031 85.40625 C 79.554688 86.886719 73.109375 88.960938 71.703125 88.144531 L 69.996094 87.183594 C 65.109375 84.292969 61.476562 79.921875 59.550781 74.589844 L 58.886719 72.738281 C 58.144531 70.664062 58.886719 68.21875 60.8125 66.660156 L 86.742188 45.398438 C 86.742188 45.472656 86.816406 45.472656 86.890625 45.472656 Z M 72.960938 98.742188 C 73.40625 98.074219 73.480469 97.257812 73.183594 96.519531 C 72.886719 95.777344 72.21875 95.257812 71.480469 95.109375 C 58.886719 92.960938 49.773438 82.070312 49.773438 69.253906 C 49.773438 61.996094 52.808594 55.03125 58.070312 50.140625 C 62.960938 45.546875 69.257812 43.027344 76 43.027344 C 76.589844 43.027344 77.183594 43.027344 77.777344 43.101562 C 80.519531 43.25 83.109375 43.917969 85.554688 44.878906 L 60.292969 65.847656 C 58.070312 67.699219 57.179688 70.664062 58.070312 73.179688 L 58.738281 75.035156 C 60.738281 80.664062 64.515625 85.257812 69.628906 88.21875 L 71.332031 89.183594 C 71.703125 89.40625 72.21875 89.480469 72.886719 89.480469 C 76.222656 89.480469 82.519531 87.035156 83.925781 86.515625 C 91.1875 83.777344 97.558594 78.589844 101.707031 71.996094 C 101.707031 71.996094 101.929688 71.699219 102.226562 71.253906 C 102.078125 73.105469 101.78125 74.886719 101.261719 76.664062 C 101.039062 77.328125 101.1875 77.996094 101.558594 78.589844 C 101.929688 79.109375 102.445312 79.550781 103.113281 79.625 L 107.707031 80.367188 C 107.632812 80.589844 107.558594 80.886719 107.410156 81.183594 C 107.335938 81.332031 107.261719 81.480469 107.1875 81.699219 C 107.1875 81.699219 107.1875 81.699219 107.1875 81.773438 C 107.039062 82.144531 106.816406 82.589844 106.523438 83.035156 C 106.523438 83.035156 106.523438 83.109375 106.449219 83.109375 C 106.300781 83.332031 106.152344 83.554688 106.003906 83.847656 C 106.003906 83.847656 105.929688 83.921875 105.929688 83.921875 C 105.632812 84.441406 105.1875 84.960938 104.816406 85.628906 C 104.816406 85.703125 104.742188 85.703125 104.742188 85.777344 C 104.519531 86.070312 104.300781 86.367188 104.078125 86.664062 C 104.078125 86.738281 104.003906 86.738281 103.929688 86.8125 C 103.410156 87.480469 102.816406 88.144531 102.226562 88.8125 C 102.152344 88.886719 102.152344 88.886719 102.078125 88.960938 C 101.78125 89.332031 101.410156 89.628906 101.039062 90 C 100.964844 90.074219 100.890625 90.148438 100.890625 90.148438 C 100.148438 90.886719 99.335938 91.703125 98.445312 92.515625 C 98.371094 92.589844 98.296875 92.664062 98.222656 92.738281 C 97.78125 93.109375 97.335938 93.554688 96.816406 93.925781 C 96.742188 94 96.667969 94.074219 96.59375 94.148438 C 96.074219 94.59375 95.558594 95.035156 95.039062 95.40625 C 95.039062 95.40625 94.964844 95.40625 94.964844 95.480469 C 94.816406 95.628906 94.59375 95.777344 94.445312 95.851562 C 94.371094 95.925781 94.296875 96 94.222656 96 C 94.074219 96.074219 93.925781 96.148438 93.777344 96.296875 C 93.703125 96.371094 93.558594 96.445312 93.484375 96.445312 C 93.335938 96.519531 93.1875 96.59375 93.039062 96.667969 C 92.964844 96.742188 92.816406 96.8125 92.742188 96.8125 C 92.59375 96.886719 92.445312 96.960938 92.296875 97.035156 C 92.148438 97.109375 92.074219 97.183594 91.925781 97.183594 C 91.777344 97.257812 91.554688 97.332031 91.410156 97.40625 C 91.335938 97.480469 91.1875 97.480469 91.113281 97.554688 C 90.816406 97.703125 90.59375 97.777344 90.296875 97.925781 C 90.222656 98 90.074219 98 90 98.074219 C 89.777344 98.148438 89.628906 98.222656 89.40625 98.296875 C 89.261719 98.371094 89.113281 98.371094 88.964844 98.445312 C 88.816406 98.519531 88.59375 98.59375 88.445312 98.59375 C 88.296875 98.667969 88.148438 98.667969 88 98.742188 C 87.851562 98.816406 87.703125 98.816406 87.480469 98.890625 C 87.332031 98.960938 87.183594 98.960938 87.039062 99.035156 C 86.890625 99.109375 86.667969 99.109375 86.519531 99.183594 C 86.371094 99.257812 86.222656 99.257812 86.074219 99.332031 C 85.925781 99.40625 85.703125 99.40625 85.554688 99.480469 C 85.40625 99.554688 85.257812 99.554688 85.109375 99.628906 C 84.816406 99.703125 84.519531 99.777344 84.148438 99.851562 C 84 99.925781 83.851562 99.925781 83.628906 100 C 83.480469 100.074219 83.257812 100.074219 83.109375 100.148438 C 82.960938 100.222656 82.742188 100.222656 82.59375 100.296875 C 82.445312 100.371094 82.296875 100.371094 82.148438 100.445312 C 82 100.519531 81.777344 100.519531 81.628906 100.59375 C 81.480469 100.59375 81.332031 100.667969 81.183594 100.667969 C 81.035156 100.742188 80.8125 100.742188 80.664062 100.816406 C 80.519531 100.816406 80.371094 100.890625 80.222656 100.890625 C 80.074219 100.890625 79.851562 100.964844 79.703125 100.964844 C 79.554688 100.964844 79.40625 101.039062 79.257812 101.039062 C 78.886719 101.109375 78.589844 101.183594 78.296875 101.257812 C 78.148438 101.257812 78.074219 101.332031 77.925781 101.332031 C 77.777344 101.332031 77.554688 101.40625 77.40625 101.40625 C 77.257812 101.40625 77.183594 101.480469 77.035156 101.480469 C 76.886719 101.480469 76.664062 101.554688 76.515625 101.554688 C 76.367188 101.554688 76.292969 101.628906 76.148438 101.628906 C 76 101.628906 75.851562 101.703125 75.628906 101.703125 C 75.480469 101.703125 75.40625 101.777344 75.257812 101.777344 C 75.109375 101.777344 74.960938 101.851562 74.8125 101.851562 C 74.738281 101.851562 74.589844 101.851562 74.515625 101.925781 C 74.367188 101.925781 74.21875 102 74.074219 102 C 74 102 73.925781 102 73.851562 102 C 73.480469 102.074219 73.109375 102.074219 72.8125 102.148438 C 72.8125 102.148438 72.738281 102.148438 72.738281 102.148438 C 72.589844 102.148438 72.441406 102.222656 72.292969 102.222656 C 72.21875 102.222656 72.144531 102.222656 72.144531 102.222656 C 71.996094 102.222656 71.851562 102.296875 71.777344 102.296875 C 71.703125 102.296875 71.628906 102.296875 71.628906 102.296875 C 71.480469 102.296875 71.40625 102.296875 71.257812 102.371094 C 71.257812 102.371094 71.183594 102.371094 71.183594 102.371094 C 71.035156 102.371094 70.960938 102.371094 70.8125 102.445312 Z M 38.214844 151.414062 L 57.996094 154.601562 L 54.660156 175.121094 L 34.734375 171.9375 C 35.25 164.972656 36.4375 158.082031 38.214844 151.414062 Z M 45.03125 225.648438 C 44.660156 224.757812 44.289062 223.945312 43.84375 223.054688 C 43.699219 222.757812 43.625 222.464844 43.476562 222.242188 C 43.179688 221.574219 42.882812 220.90625 42.660156 220.242188 C 42.511719 219.871094 42.363281 219.5 42.214844 219.128906 C 41.992188 218.535156 41.769531 217.945312 41.550781 217.351562 C 41.253906 216.460938 40.882812 215.648438 40.585938 214.757812 C 40.4375 214.3125 40.289062 213.941406 40.140625 213.5 C 39.917969 212.90625 39.695312 212.238281 39.546875 211.648438 C 39.472656 211.351562 39.328125 211.054688 39.253906 210.683594 C 39.03125 210.015625 38.882812 209.351562 38.660156 208.683594 C 38.585938 208.460938 38.511719 208.238281 38.4375 208.015625 C 38.214844 207.347656 38.066406 206.609375 37.84375 205.941406 C 48.140625 203.496094 58.957031 209.128906 63.625 219.351562 C 68.21875 229.5 65.476562 241.207031 57.105469 247.429688 C 52.808594 240.910156 48.660156 233.648438 45.105469 225.871094 C 45.105469 225.796875 45.105469 225.722656 45.03125 225.648438 Z M 128.746094 270.839844 C 133.636719 275.730469 136.007812 279.433594 135.710938 281.953125 C 135.636719 282.917969 135.117188 283.582031 134.230469 284.175781 C 132.15625 285.507812 127.710938 283.285156 126.226562 282.324219 C 126.007812 282.175781 125.785156 282.175781 125.636719 282.324219 C 125.488281 282.472656 125.339844 282.695312 125.414062 282.917969 C 125.414062 283.066406 128.597656 294.398438 129.042969 299.511719 L 129.117188 299.957031 C 129.5625 305.289062 130.15625 311.882812 122.226562 316.328125 C 118.746094 318.253906 115.265625 318.625 111.855469 317.367188 C 106.078125 315.21875 100.816406 308.550781 97.410156 298.992188 C 93.261719 287.4375 88.148438 280.84375 86.074219 278.472656 C 86.222656 278.398438 86.296875 278.324219 86.371094 278.25 L 109.632812 258.765625 C 109.707031 258.691406 109.707031 258.691406 109.78125 258.617188 C 111.558594 259.429688 121.191406 263.359375 128.746094 270.839844 Z M 81.257812 207.054688 C 88.445312 215.351562 104.890625 244.835938 109.707031 253.652344 C 110.449219 254.988281 110.226562 256.691406 109.113281 257.800781 C 109.039062 257.875 108.964844 257.949219 108.890625 258.023438 L 85.628906 277.507812 C 85.480469 277.582031 85.332031 277.730469 85.183594 277.804688 C 85.109375 277.878906 84.960938 277.953125 84.890625 277.953125 C 83.554688 278.621094 81.925781 278.324219 80.8125 277.285156 C 76.441406 272.765625 66.960938 262.394531 57.699219 248.394531 C 66.589844 241.875 69.480469 229.574219 64.664062 218.90625 C 59.773438 208.164062 48.4375 202.3125 37.621094 204.90625 C 37.179688 203.050781 36.734375 201.199219 36.363281 199.347656 C 34.585938 189.941406 34.140625 181.050781 34.660156 173.046875 L 55.03125 176.308594 C 55.03125 176.308594 55.105469 176.308594 55.105469 176.308594 C 55.402344 176.308594 55.625 176.085938 55.625 175.863281 L 59.105469 154.230469 C 59.105469 154.082031 59.105469 153.933594 59.03125 153.785156 C 58.957031 153.636719 58.8125 153.5625 58.664062 153.5625 L 38.4375 150.304688 C 42.289062 136.300781 47.773438 127.558594 48.511719 126.375 C 48.882812 126.226562 49.328125 126.078125 49.699219 125.929688 C 49.847656 125.855469 50.070312 125.78125 50.21875 125.707031 C 50.660156 125.558594 51.03125 125.410156 51.476562 125.261719 C 51.625 125.1875 51.847656 125.113281 51.996094 125.039062 C 52.367188 124.894531 52.808594 124.820312 53.179688 124.671875 C 53.402344 124.597656 53.550781 124.523438 53.773438 124.523438 C 54.144531 124.449219 54.515625 124.300781 54.882812 124.226562 C 55.105469 124.152344 55.253906 124.152344 55.476562 124.078125 C 55.847656 124.003906 56.21875 123.929688 56.589844 123.855469 C 56.738281 123.855469 56.957031 123.78125 57.105469 123.707031 C 57.476562 123.632812 57.847656 123.558594 58.144531 123.558594 C 58.292969 123.558594 58.515625 123.484375 58.664062 123.484375 C 59.03125 123.410156 59.328125 123.410156 59.699219 123.410156 C 59.847656 123.410156 60.070312 123.335938 60.21875 123.335938 C 60.589844 123.335938 60.886719 123.335938 61.179688 123.261719 C 61.328125 123.261719 61.550781 123.261719 61.699219 123.261719 C 61.996094 123.261719 62.367188 123.261719 62.664062 123.261719 C 62.8125 123.261719 63.035156 123.261719 63.183594 123.261719 C 63.476562 123.261719 63.773438 123.335938 64.144531 123.335938 C 64.292969 123.335938 64.441406 123.335938 64.664062 123.410156 C 64.960938 123.484375 65.257812 123.484375 65.550781 123.558594 C 65.699219 123.558594 65.847656 123.632812 65.996094 123.632812 C 66.292969 123.707031 66.589844 123.78125 66.886719 123.855469 C 67.035156 123.929688 67.183594 123.929688 67.332031 124.003906 C 67.625 124.078125 67.921875 124.226562 68.21875 124.300781 C 68.367188 124.375 68.515625 124.375 68.664062 124.449219 C 68.960938 124.597656 69.257812 124.671875 69.554688 124.820312 C 69.703125 124.894531 69.773438 124.894531 69.921875 124.964844 C 70.292969 125.113281 70.589844 125.335938 70.960938 125.484375 C 71.035156 125.484375 71.035156 125.558594 71.109375 125.558594 C 71.480469 125.78125 71.851562 126.003906 72.21875 126.300781 C 72.589844 126.597656 72.960938 126.820312 73.332031 127.117188 C 84.519531 136.375 84.074219 159.269531 83.851562 163.9375 C 83.332031 174.972656 81.035156 206.386719 81.035156 206.683594 C 81.109375 206.832031 81.183594 206.980469 81.257812 207.054688 Z M 85.035156 164.007812 C 85.035156 163.863281 85.035156 163.640625 85.035156 163.417969 C 85.035156 163.417969 85.035156 163.34375 85.035156 163.34375 C 85.035156 163.195312 85.035156 163.046875 85.035156 162.824219 C 85.109375 159.269531 85.109375 152.230469 83.628906 145.042969 C 82.148438 137.785156 79.628906 132.152344 76.148438 128.300781 C 75.851562 128.003906 75.554688 127.632812 75.257812 127.335938 C 75.183594 127.261719 75.109375 127.1875 75.109375 127.1875 C 74.8125 126.96875 74.589844 126.671875 74.292969 126.449219 C 74.21875 126.375 74.144531 126.300781 74.074219 126.226562 C 73.703125 125.929688 73.332031 125.632812 72.960938 125.410156 C 72.589844 125.1875 72.21875 124.894531 71.851562 124.671875 C 71.703125 124.597656 71.554688 124.523438 71.480469 124.449219 C 71.183594 124.300781 70.960938 124.152344 70.664062 124.003906 C 70.515625 123.929688 70.367188 123.855469 70.144531 123.78125 C 69.921875 123.632812 69.628906 123.558594 69.40625 123.484375 C 69.257812 123.410156 69.035156 123.335938 68.886719 123.261719 C 68.664062 123.1875 68.367188 123.113281 68.144531 123.039062 C 67.921875 122.964844 67.773438 122.890625 67.554688 122.890625 C 67.332031 122.816406 67.035156 122.746094 66.8125 122.671875 C 66.589844 122.597656 66.367188 122.597656 66.21875 122.523438 C 65.996094 122.449219 65.699219 122.449219 65.476562 122.375 C 65.257812 122.375 65.035156 122.300781 64.8125 122.300781 C 64.515625 122.300781 64.292969 122.226562 63.996094 122.226562 C 63.773438 122.226562 63.550781 122.226562 63.328125 122.152344 C 63.035156 122.152344 62.8125 122.152344 62.515625 122.152344 C 62.292969 122.152344 62.070312 122.152344 61.847656 122.152344 C 61.550781 122.152344 61.253906 122.152344 60.960938 122.152344 C 60.738281 122.152344 60.515625 122.152344 60.292969 122.152344 C 59.996094 122.152344 59.699219 122.226562 59.402344 122.226562 C 59.179688 122.226562 58.957031 122.300781 58.738281 122.300781 C 58.441406 122.375 58.070312 122.375 57.773438 122.449219 C 57.550781 122.449219 57.328125 122.523438 57.105469 122.523438 C 56.738281 122.597656 56.292969 122.671875 55.847656 122.746094 C 55.699219 122.746094 55.550781 122.816406 55.402344 122.816406 C 54.808594 122.964844 54.292969 123.113281 53.699219 123.261719 C 53.550781 123.335938 53.328125 123.335938 53.179688 123.410156 C 52.734375 123.558594 52.367188 123.632812 51.921875 123.78125 C 51.699219 123.855469 51.476562 123.929688 51.253906 124.003906 C 50.957031 124.078125 50.660156 124.226562 50.363281 124.300781 L 69.628906 103.480469 C 69.628906 103.480469 69.703125 103.480469 69.703125 103.480469 C 69.703125 103.480469 69.773438 103.480469 69.773438 103.480469 C 69.847656 103.480469 69.921875 103.480469 69.921875 103.480469 C 69.996094 103.480469 69.996094 103.480469 70.070312 103.480469 C 70.144531 103.480469 70.21875 103.480469 70.292969 103.480469 C 70.367188 103.480469 70.367188 103.480469 70.441406 103.480469 C 70.515625 103.480469 70.664062 103.480469 70.738281 103.480469 C 70.8125 103.480469 70.886719 103.480469 70.960938 103.480469 C 71.035156 103.480469 71.183594 103.480469 71.332031 103.40625 C 71.40625 103.40625 71.480469 103.40625 71.554688 103.40625 C 71.703125 103.40625 71.851562 103.332031 71.996094 103.332031 C 72.070312 103.332031 72.144531 103.332031 72.21875 103.332031 C 72.367188 103.332031 72.515625 103.261719 72.738281 103.261719 C 72.8125 103.261719 72.886719 103.261719 72.960938 103.261719 C 73.183594 103.261719 73.332031 103.1875 73.554688 103.1875 C 73.628906 103.1875 73.628906 103.1875 73.703125 103.1875 C 74.515625 103.039062 75.332031 102.964844 76.292969 102.742188 C 76.367188 102.742188 76.367188 102.742188 76.441406 102.742188 C 76.738281 102.667969 76.960938 102.667969 77.257812 102.59375 C 77.332031 102.59375 77.40625 102.59375 77.554688 102.519531 C 77.777344 102.445312 78 102.445312 78.222656 102.371094 C 78.296875 102.371094 78.441406 102.296875 78.515625 102.296875 C 78.738281 102.222656 78.960938 102.222656 79.183594 102.148438 C 79.332031 102.148438 79.40625 102.074219 79.554688 102.074219 C 79.777344 102 80 102 80.222656 101.925781 C 80.371094 101.925781 80.445312 101.851562 80.59375 101.851562 C 80.8125 101.777344 81.035156 101.777344 81.257812 101.703125 C 81.40625 101.703125 81.554688 101.628906 81.628906 101.628906 C 81.851562 101.554688 82.074219 101.554688 82.296875 101.480469 C 82.445312 101.480469 82.59375 101.40625 82.667969 101.40625 C 82.886719 101.332031 83.109375 101.332031 83.332031 101.257812 C 83.480469 101.257812 83.628906 101.183594 83.777344 101.183594 C 84 101.113281 84.222656 101.113281 84.445312 101.039062 C 84.59375 100.964844 84.742188 100.964844 84.890625 100.890625 C 85.109375 100.816406 85.332031 100.742188 85.480469 100.742188 C 85.628906 100.667969 85.777344 100.667969 85.925781 100.59375 C 86.148438 100.519531 86.371094 100.445312 86.519531 100.445312 C 86.667969 100.371094 86.816406 100.371094 86.964844 100.296875 C 87.183594 100.222656 87.40625 100.148438 87.554688 100.074219 C 87.703125 100 87.851562 100 88 99.925781 C 88.222656 99.851562 88.371094 99.777344 88.59375 99.703125 C 88.742188 99.628906 88.890625 99.628906 88.964844 99.554688 C 89.1875 99.480469 89.332031 99.40625 89.554688 99.332031 C 89.703125 99.257812 89.851562 99.257812 89.925781 99.183594 C 90.148438 99.109375 90.296875 99.035156 90.519531 98.964844 C 90.667969 98.890625 90.742188 98.890625 90.890625 98.816406 C 91.113281 98.742188 91.261719 98.667969 91.480469 98.59375 C 91.628906 98.519531 91.703125 98.519531 91.851562 98.445312 C 92.074219 98.371094 92.222656 98.296875 92.371094 98.222656 C 92.445312 98.148438 92.59375 98.148438 92.667969 98.074219 C 92.890625 98 93.039062 97.851562 93.1875 97.777344 C 93.261719 97.703125 93.410156 97.703125 93.484375 97.628906 C 93.703125 97.554688 93.851562 97.40625 94 97.332031 C 94.074219 97.257812 94.148438 97.257812 94.222656 97.183594 C 94.445312 97.035156 94.59375 96.960938 94.816406 96.8125 C 94.890625 96.8125 94.890625 96.742188 94.964844 96.742188 C 95.1875 96.59375 95.410156 96.445312 95.632812 96.222656 C 96 95.925781 96.371094 95.628906 96.667969 95.40625 C 96.742188 95.332031 96.816406 95.332031 96.890625 95.257812 C 97.1875 95.035156 97.410156 94.8125 97.707031 94.59375 C 97.78125 94.519531 97.855469 94.445312 98 94.371094 C 98.222656 94.148438 98.445312 94 98.667969 93.777344 C 98.742188 93.703125 98.890625 93.628906 98.964844 93.554688 C 99.1875 93.40625 99.410156 93.183594 99.558594 93.035156 C 99.632812 92.960938 99.707031 92.886719 99.78125 92.8125 C 100.003906 92.589844 100.148438 92.445312 100.371094 92.222656 C 100.445312 92.148438 100.519531 92.074219 100.59375 92 C 100.816406 91.777344 101.039062 91.554688 101.261719 91.40625 C 101.335938 91.332031 101.335938 91.332031 101.410156 91.257812 C 101.929688 90.738281 102.371094 90.296875 102.816406 89.777344 C 102.816406 89.777344 102.890625 89.703125 102.890625 89.703125 C 103.113281 89.480469 103.261719 89.257812 103.484375 89.109375 C 103.558594 89.035156 103.558594 89.035156 103.632812 88.960938 C 103.78125 88.8125 103.929688 88.589844 104.078125 88.441406 C 104.152344 88.367188 104.152344 88.292969 104.226562 88.292969 C 104.375 88.144531 104.519531 88 104.59375 87.851562 C 104.667969 87.777344 104.667969 87.703125 104.742188 87.703125 C 104.890625 87.554688 105.039062 87.40625 105.113281 87.257812 C 105.113281 87.183594 105.1875 87.183594 105.1875 87.109375 C 105.335938 86.960938 105.484375 86.738281 105.558594 86.589844 C 105.558594 86.589844 105.558594 86.515625 105.632812 86.515625 C 106.078125 85.925781 106.449219 85.332031 106.816406 84.8125 C 106.816406 84.8125 106.816406 84.738281 106.890625 84.738281 C 106.964844 84.589844 107.039062 84.441406 107.1875 84.292969 C 107.1875 84.292969 107.261719 84.21875 107.261719 84.21875 C 107.335938 84.070312 107.410156 83.996094 107.484375 83.847656 C 107.484375 83.847656 107.484375 83.777344 107.558594 83.777344 C 107.632812 83.628906 107.707031 83.554688 107.78125 83.40625 C 107.78125 83.40625 107.78125 83.332031 107.855469 83.332031 C 107.929688 83.183594 108.003906 83.035156 108.078125 82.960938 C 108.300781 82.515625 108.449219 82.144531 108.597656 81.847656 C 108.671875 81.773438 108.671875 81.628906 108.746094 81.554688 C 108.746094 81.480469 108.816406 81.40625 108.816406 81.257812 C 108.890625 80.960938 108.964844 80.738281 109.039062 80.589844 L 134.527344 75.476562 L 158.160156 127.117188 L 167.050781 146.527344 L 145.046875 169.863281 L 105.261719 211.574219 L 84.148438 179.492188 C 84.59375 172.382812 84.890625 167.195312 85.035156 164.007812 Z M 145.195312 243.355469 C 120.003906 240.910156 107.335938 215.796875 105.855469 212.609375 L 145.566406 170.527344 L 150.824219 164.898438 L 167.640625 147.042969 C 169.863281 147.117188 186.976562 147.785156 206.019531 150.527344 C 212.09375 151.414062 218.835938 152.527344 225.429688 154.082031 L 213.5 195.199219 C 198.238281 189.867188 173.71875 187.421875 172.457031 187.273438 L 172.382812 188.382812 C 172.53125 188.382812 179.941406 189.125 189.125 190.679688 L 174.308594 243.058594 C 165.640625 243.652344 154.085938 244.242188 145.195312 243.355469 Z M 175.496094 242.761719 L 190.164062 190.679688 C 202.238281 192.753906 216.984375 196.089844 222.464844 200.832031 C 222.6875 201.050781 222.984375 201.273438 223.207031 201.570312 C 223.28125 201.644531 223.355469 201.71875 223.429688 201.792969 C 223.648438 202.015625 223.796875 202.238281 224.019531 202.460938 C 224.09375 202.535156 224.09375 202.609375 224.167969 202.609375 C 224.390625 202.90625 224.613281 203.273438 224.910156 203.644531 C 225.132812 204.015625 225.355469 204.460938 225.652344 204.832031 C 225.652344 204.832031 225.652344 204.832031 225.652344 204.90625 C 229.800781 212.386719 232.984375 226.761719 234.984375 242.835938 L 187.050781 247.578125 C 187.496094 244.242188 187.71875 242.242188 187.792969 242.09375 C 187.792969 241.949219 187.792969 241.726562 187.644531 241.652344 C 187.496094 241.503906 187.347656 241.503906 187.199219 241.503906 C 186.976562 241.578125 182.164062 242.167969 175.496094 242.761719 Z M 231.652344 327.886719 C 247.285156 338.40625 251.65625 348.113281 250.542969 353.667969 C 250.023438 356.261719 248.320312 357.964844 245.726562 358.558594 C 225.429688 362.78125 191.128906 351.519531 188.90625 346.628906 C 187.125 342.628906 188.164062 319.8125 188.683594 311.660156 C 189.273438 311.882812 190.015625 312.179688 190.683594 312.402344 C 190.832031 312.476562 190.980469 312.476562 191.199219 312.550781 C 191.347656 312.625 191.496094 312.625 191.644531 312.699219 C 191.941406 312.773438 192.238281 312.847656 192.535156 312.921875 C 204.019531 315.882812 222.019531 314.996094 230.097656 311.734375 L 231.429688 327.515625 C 231.355469 327.664062 231.503906 327.8125 231.652344 327.886719 Z M 232.539062 308.996094 C 231.949219 309.511719 231.132812 309.957031 230.167969 310.402344 C 229.949219 310.476562 229.800781 310.550781 229.578125 310.625 C 229.503906 310.625 229.429688 310.699219 229.28125 310.699219 C 229.058594 310.773438 228.835938 310.847656 228.613281 310.921875 C 228.539062 310.921875 228.464844 310.996094 228.316406 310.996094 C 228.09375 311.070312 227.875 311.144531 227.578125 311.21875 C 227.503906 311.21875 227.429688 311.292969 227.355469 311.292969 C 227.058594 311.363281 226.761719 311.4375 226.464844 311.511719 C 226.390625 311.511719 226.316406 311.511719 226.316406 311.585938 C 225.945312 311.660156 225.652344 311.734375 225.28125 311.808594 C 225.28125 311.808594 225.28125 311.808594 225.207031 311.808594 C 214.761719 314.179688 196.90625 314.03125 188.238281 310.179688 C 185.71875 309.070312 184.089844 307.660156 183.570312 306.105469 C 180.902344 298.546875 184.902344 263.433594 186.757812 248.613281 L 234.984375 243.875 C 236.171875 253.949219 236.835938 264.691406 236.984375 274.839844 C 237.207031 293.289062 235.503906 306.328125 232.539062 308.996094 Z M 271.582031 263.507812 C 267.359375 264.246094 252.914062 248.097656 231.949219 219.351562 C 231.875 219.128906 231.800781 218.90625 231.800781 218.683594 C 231.652344 218.167969 231.503906 217.648438 231.429688 217.128906 C 231.429688 217.054688 231.355469 216.90625 231.355469 216.832031 C 231.132812 216.089844 230.910156 215.351562 230.761719 214.609375 L 275.730469 187.050781 C 291.585938 207.570312 306.402344 232.390625 306.773438 236.464844 C 307.144531 240.835938 297.511719 254.46875 281.4375 260.839844 C 281.4375 260.839844 281.363281 260.839844 281.363281 260.839844 C 280.84375 261.0625 280.324219 261.210938 279.734375 261.433594 C 279.660156 261.433594 279.511719 261.507812 279.4375 261.507812 C 278.917969 261.652344 278.472656 261.800781 277.953125 262.023438 C 277.808594 262.097656 277.734375 262.097656 277.585938 262.171875 C 277.066406 262.320312 276.546875 262.46875 276.027344 262.617188 C 275.878906 262.617188 275.804688 262.691406 275.65625 262.691406 C 274.25 262.988281 272.917969 263.285156 271.582031 263.507812 Z M 342.707031 261.210938 C 331.445312 276.621094 301.070312 289.953125 296.550781 287.953125 C 292.847656 286.324219 279.585938 270.101562 274.769531 264.097656 C 274.992188 264.023438 275.289062 263.949219 275.511719 263.875 C 275.660156 263.800781 275.804688 263.800781 275.953125 263.726562 C 276.472656 263.582031 276.992188 263.433594 277.511719 263.285156 C 277.585938 263.285156 277.660156 263.210938 277.808594 263.210938 C 279.066406 262.839844 280.25 262.394531 281.4375 261.949219 C 281.511719 261.949219 281.511719 261.875 281.585938 261.875 C 282.105469 261.652344 282.546875 261.503906 283.066406 261.285156 C 283.289062 261.210938 283.511719 261.0625 283.734375 260.988281 C 284.03125 260.839844 284.328125 260.691406 284.621094 260.617188 C 284.917969 260.46875 285.214844 260.320312 285.511719 260.171875 C 285.660156 260.097656 285.808594 260.023438 286.03125 259.949219 C 297.882812 253.949219 305.738281 244.464844 307.441406 238.761719 L 316.183594 247.058594 C 316.332031 247.207031 316.480469 247.207031 316.628906 247.207031 C 329.742188 245.355469 339.59375 247.652344 343 253.355469 C 344.484375 255.949219 344.410156 258.839844 342.707031 261.210938 Z M 342.707031 261.210938 " fill-opacity="1" fill-rule="nonzero"/></svg>